<mxfile host="app.diagrams.net" modified="2024-02-05T15:25:33.884Z" agent="Mozilla/5.0 (Windows NT 10.0; Win64; x64) AppleWebKit/537.36 (KHTML, like Gecko) Chrome/121.0.0.0 Safari/537.36" etag="-x6rwdCcJ3ysgR2fgLqC" version="22.1.16" type="github">
  <diagram name="Page-1" id="5IsuKcasWGkJipCwxS3t">
    <mxGraphModel dx="910" dy="459" grid="1" gridSize="10" guides="1" tooltips="1" connect="1" arrows="1" fold="1" page="1" pageScale="1" pageWidth="827" pageHeight="1169" math="0" shadow="0">
      <root>
        <mxCell id="0" />
        <mxCell id="1" parent="0" />
        <mxCell id="f_7BDfIoyY3mClRFyVxb-1" value="ACC State: Deactivated" style="whiteSpace=wrap;html=1;aspect=fixed;verticalAlign=top;" vertex="1" parent="1">
          <mxGeometry x="760" y="62.5" width="395" height="395" as="geometry" />
        </mxCell>
        <mxCell id="f_7BDfIoyY3mClRFyVxb-2" value="ACC State: Activated" style="whiteSpace=wrap;html=1;aspect=fixed;verticalAlign=top;" vertex="1" parent="1">
          <mxGeometry x="195" y="65" width="390" height="390" as="geometry" />
        </mxCell>
        <mxCell id="f_7BDfIoyY3mClRFyVxb-9" value="" style="endArrow=classic;html=1;rounded=0;entryX=0;entryY=0.133;entryDx=0;entryDy=0;entryPerimeter=0;" edge="1" parent="1" target="f_7BDfIoyY3mClRFyVxb-1">
          <mxGeometry width="50" height="50" relative="1" as="geometry">
            <mxPoint x="590" y="115" as="sourcePoint" />
            <mxPoint x="670" y="65" as="targetPoint" />
          </mxGeometry>
        </mxCell>
        <mxCell id="f_7BDfIoyY3mClRFyVxb-10" value="Deactivate" style="edgeLabel;html=1;align=center;verticalAlign=middle;resizable=0;points=[];" vertex="1" connectable="0" parent="f_7BDfIoyY3mClRFyVxb-9">
          <mxGeometry x="-0.1594" relative="1" as="geometry">
            <mxPoint as="offset" />
          </mxGeometry>
        </mxCell>
        <mxCell id="f_7BDfIoyY3mClRFyVxb-11" value="" style="endArrow=classic;html=1;rounded=0;exitX=0;exitY=0.956;exitDx=0;exitDy=0;exitPerimeter=0;entryX=1.005;entryY=0.96;entryDx=0;entryDy=0;entryPerimeter=0;" edge="1" parent="1" source="f_7BDfIoyY3mClRFyVxb-1" target="f_7BDfIoyY3mClRFyVxb-2">
          <mxGeometry width="50" height="50" relative="1" as="geometry">
            <mxPoint x="610" y="290" as="sourcePoint" />
            <mxPoint x="660" y="240" as="targetPoint" />
          </mxGeometry>
        </mxCell>
        <mxCell id="f_7BDfIoyY3mClRFyVxb-12" value="Activate" style="edgeLabel;html=1;align=center;verticalAlign=middle;resizable=0;points=[];" vertex="1" connectable="0" parent="f_7BDfIoyY3mClRFyVxb-11">
          <mxGeometry x="-0.1269" y="1" relative="1" as="geometry">
            <mxPoint as="offset" />
          </mxGeometry>
        </mxCell>
        <mxCell id="f_7BDfIoyY3mClRFyVxb-13" value="" style="endArrow=classic;html=1;rounded=0;exitX=0;exitY=0.956;exitDx=0;exitDy=0;exitPerimeter=0;entryX=1.005;entryY=0.96;entryDx=0;entryDy=0;entryPerimeter=0;" edge="1" parent="1">
          <mxGeometry width="50" height="50" relative="1" as="geometry">
            <mxPoint x="758" y="391" as="sourcePoint" />
            <mxPoint x="585" y="390" as="targetPoint" />
          </mxGeometry>
        </mxCell>
        <mxCell id="f_7BDfIoyY3mClRFyVxb-14" value="Enabled" style="edgeLabel;html=1;align=center;verticalAlign=middle;resizable=0;points=[];" vertex="1" connectable="0" parent="f_7BDfIoyY3mClRFyVxb-13">
          <mxGeometry x="-0.1269" y="1" relative="1" as="geometry">
            <mxPoint as="offset" />
          </mxGeometry>
        </mxCell>
        <mxCell id="f_7BDfIoyY3mClRFyVxb-15" value="ACC State: Speed Control" style="rounded=0;whiteSpace=wrap;html=1;verticalAlign=top;" vertex="1" parent="1">
          <mxGeometry x="220" y="110" width="340" height="100" as="geometry" />
        </mxCell>
        <mxCell id="f_7BDfIoyY3mClRFyVxb-16" value="targetSpeed" style="rounded=1;whiteSpace=wrap;html=1;" vertex="1" parent="1">
          <mxGeometry x="340" y="160" width="90" height="20" as="geometry" />
        </mxCell>
        <mxCell id="f_7BDfIoyY3mClRFyVxb-17" value="SetPlus" style="rounded=1;whiteSpace=wrap;html=1;" vertex="1" parent="1">
          <mxGeometry x="230" y="160" width="90" height="20" as="geometry" />
        </mxCell>
        <mxCell id="f_7BDfIoyY3mClRFyVxb-18" value="SetMinus" style="rounded=1;whiteSpace=wrap;html=1;" vertex="1" parent="1">
          <mxGeometry x="460" y="160" width="90" height="20" as="geometry" />
        </mxCell>
        <mxCell id="f_7BDfIoyY3mClRFyVxb-21" value="" style="endArrow=classic;startArrow=classic;html=1;rounded=0;" edge="1" parent="1">
          <mxGeometry width="50" height="50" relative="1" as="geometry">
            <mxPoint x="320" y="169.5" as="sourcePoint" />
            <mxPoint x="340" y="169.5" as="targetPoint" />
          </mxGeometry>
        </mxCell>
        <mxCell id="f_7BDfIoyY3mClRFyVxb-22" value="" style="endArrow=classic;startArrow=classic;html=1;rounded=0;" edge="1" parent="1">
          <mxGeometry width="50" height="50" relative="1" as="geometry">
            <mxPoint x="440" y="169.5" as="sourcePoint" />
            <mxPoint x="460" y="169.5" as="targetPoint" />
          </mxGeometry>
        </mxCell>
        <mxCell id="f_7BDfIoyY3mClRFyVxb-23" value="ACC State: Overruled" style="rounded=0;whiteSpace=wrap;html=1;verticalAlign=top;" vertex="1" parent="1">
          <mxGeometry x="220" y="330" width="340" height="110" as="geometry" />
        </mxCell>
        <mxCell id="f_7BDfIoyY3mClRFyVxb-24" value="&lt;span style=&quot;color: rgb(0, 0, 0); font-family: Helvetica; font-size: 12px; font-style: normal; font-variant-ligatures: normal; font-variant-caps: normal; font-weight: 400; letter-spacing: normal; orphans: 2; text-align: center; text-indent: 0px; text-transform: none; widows: 2; word-spacing: 0px; -webkit-text-stroke-width: 0px; background-color: rgb(251, 251, 251); text-decoration-thickness: initial; text-decoration-style: initial; text-decoration-color: initial; float: none; display: inline !important;&quot;&gt;ACC State: Clearance Control&lt;/span&gt;" style="rounded=0;whiteSpace=wrap;html=1;verticalAlign=top;" vertex="1" parent="1">
          <mxGeometry x="220" y="220" width="340" height="100" as="geometry" />
        </mxCell>
        <mxCell id="f_7BDfIoyY3mClRFyVxb-26" value="ValidPrececessor" style="rounded=1;whiteSpace=wrap;html=1;" vertex="1" parent="1">
          <mxGeometry x="240" y="260" width="126" height="30" as="geometry" />
        </mxCell>
        <mxCell id="f_7BDfIoyY3mClRFyVxb-27" value="driverEngaging" style="rounded=1;whiteSpace=wrap;html=1;" vertex="1" parent="1">
          <mxGeometry x="240" y="370" width="120" height="30" as="geometry" />
        </mxCell>
        <mxCell id="f_7BDfIoyY3mClRFyVxb-28" value="targetSpeed" style="rounded=1;whiteSpace=wrap;html=1;" vertex="1" parent="1">
          <mxGeometry x="430" y="260" width="100" height="30" as="geometry" />
        </mxCell>
        <mxCell id="f_7BDfIoyY3mClRFyVxb-29" value="" style="endArrow=classic;startArrow=classic;html=1;rounded=0;" edge="1" parent="1">
          <mxGeometry width="50" height="50" relative="1" as="geometry">
            <mxPoint x="384" y="274.5" as="sourcePoint" />
            <mxPoint x="414" y="274.5" as="targetPoint" />
          </mxGeometry>
        </mxCell>
        <mxCell id="f_7BDfIoyY3mClRFyVxb-31" value="targetSpeed" style="rounded=1;whiteSpace=wrap;html=1;" vertex="1" parent="1">
          <mxGeometry x="430" y="370" width="100" height="30" as="geometry" />
        </mxCell>
        <mxCell id="f_7BDfIoyY3mClRFyVxb-32" value="" style="endArrow=classic;startArrow=classic;html=1;rounded=0;" edge="1" parent="1">
          <mxGeometry width="50" height="50" relative="1" as="geometry">
            <mxPoint x="383.5" y="384.5" as="sourcePoint" />
            <mxPoint x="413.5" y="384.5" as="targetPoint" />
          </mxGeometry>
        </mxCell>
        <mxCell id="f_7BDfIoyY3mClRFyVxb-34" value="Part C: A statemachine is a good candidate for modelling cyclical behavior. However, having many preconditions can make the diagram confusing. The alternative would be a large IF-THEN tree" style="shape=hexagon;perimeter=hexagonPerimeter2;whiteSpace=wrap;html=1;fixedSize=1;" vertex="1" parent="1">
          <mxGeometry x="185" y="470" width="410" height="130" as="geometry" />
        </mxCell>
      </root>
    </mxGraphModel>
  </diagram>
</mxfile>
